#!OML:ASF H:\BreakDance\Project 1\Capture day 1\Session 1\Male.ASF
:FULLY-SPECIFIED
:DEGREES
83
root -2.98699 16.2982 0.123256 -54.1681 -86.8516 55.9449
lowerback -9.00647 2.35341 0.93988
upperback 4.0592 3.41082 -5.28953
thorax 9.82657 1.87676 -5.64468
lowerneck -2.92747 10.6299 5.47789
upperneck 11.1437 -49.2472 -4.13262
head 27.6561 -29.6791 -178.626
rclavicle 3.06128e-014 -1.00187e-013
rhumerus -23.8545 -3.116 -92.6285
rradius 43.7407
rwrist 6.1264
rhand -23.5393 -35.6084
rfingers 7.12502
rthumb 2.92226 -65.5681
lclavicle 3.06128e-014 -1.00187e-013
lhumerus -18.6967 -18.9172 81.7967
lradius 41.7028
lwrist -2.81344
lhand -27.761 -33.7924
lfingers 7.12502
lthumb -1.15505 -3.81581
rfemur -16.2932 2.93514 9.41792
rtibia 41.7574
rfoot -28.4467 -17.267
rtoes -9.09828
lfemur -14.2453 0.210798 -13.6044
ltibia 35.8123
lfoot -28.1824 20.3576
ltoes -34.4242
84
root -2.99154 16.2986 0.122773 -54.2118 -86.8526 56.0182
lowerback -8.98891 2.37055 0.96253
upperback 4.02363 3.43087 -5.31042
thorax 9.78228 1.88765 -5.67693
lowerneck -2.90521 10.6228 5.49428
upperneck 11.1684 -49.3117 -4.14305
head 27.6848 -29.7394 -178.665
rclavicle -9.93923e-016 -2.8625e-014
rhumerus -23.8797 -3.10122 -92.6359
rradius 43.7152
rwrist 6.01534
rhand -23.5703 -35.4778
rfingers 7.12502
rthumb 2.89232 -65.4379
lclavicle -9.93923e-016 -2.8625e-014
lhumerus -18.778 -18.9669 81.7956
lradius 41.7571
lwrist -2.80911
lhand -27.8005 -33.7838
lfingers 7.12502
lthumb -1.19323 -3.8074
rfemur -16.3118 2.99164 9.42229
rtibia 41.7589
rfoot -28.4809 -17.2976
rtoes -9.02622
lfemur -14.2593 0.199341 -13.6054
ltibia 35.8052
lfoot -28.1829 20.4062
ltoes -34.4792
85
root -2.99696 16.2983 0.12275 -54.0574 -86.8384 55.8783
lowerback -8.97223 2.38453 0.994537
upperback 3.99596 3.44626 -5.33876
thorax 9.74804 1.89738 -5.72371
lowerneck -2.87633 10.6158 5.52041
upperneck 11.1891 -49.3667 -4.14674
head 27.7064 -29.7846 -178.704
rclavicle -1.39149e-015 -1.90833e-014
rhumerus -23.9051 -3.08753 -92.6502
rradius 43.688
rwrist 5.87693
rhand -23.6749 -35.3455
rfingers 7.12502
rthumb 2.7913 -65.307
lclavicle -1.39149e-015 -1.90833e-014
lhumerus -18.857 -19.0266 81.7873
lradius 41.8125
lwrist -2.79994
lhand -27.8359 -33.7588
lfingers 7.12502
lthumb -1.22741 -3.7826
rfemur -16.2942 2.99573 9.41462
rtibia 41.7529
rfoot -28.5288 -17.2867
rtoes -8.90529
lfemur -14.2633 0.193345 -13.6149
ltibia 35.8096
lfoot -28.1834 20.4375
ltoes -34.5777
86
root -3.00312 16.2976 0.122963 -53.7394 -86.8118 55.5619
lowerback -8.96543 2.39459 1.02841
upperback 3.98 3.4569 -5.36915
thorax 9.73239 1.90538 -5.77468
lowerneck -2.84513 10.6049 5.55241
upperneck 11.2149 -49.4289 -4.15403
head 27.7242 -29.8207 -178.727
rclavicle -7.95139e-015 -4.29375e-014
rhumerus -23.9324 -3.08464 -92.6649
rradius 43.6821
rwrist 5.75202
rhand -23.7987 -35.2683
rfingers 7.12502
rthumb 2.6718 -65.2313
lclavicle -7.95139e-015 -4.29375e-014
lhumerus -18.9217 -19.0908 81.7734
lradius 41.8588
lwrist -2.79838
lhand -27.8723 -33.7254
lfingers 7.12502
lthumb -1.26254 -3.74942
rfemur -16.2458 2.96224 9.3988
rtibia 41.7404
rfoot -28.5895 -17.2516
rtoes -8.7914
lfemur -14.258 0.197022 -13.6307
ltibia 35.8235
lfoot -28.189 20.4464
ltoes -34.7128
87
root -3.00963 16.2967 0.123101 -53.3842 -86.7848 55.1999
lowerback -8.97488 2.40211 1.05825
upperback 3.97986 3.4651 -5.39281
thorax 9.7428 1.9123 -5.81626
lowerneck -2.8216 10.5876 5.58591
upperneck 11.239 -49.4777 -4.16528
head 27.7272 -29.8424 -178.719
rclavicle 3.1408e-014 -2.54444e-014
rhumerus -23.9524 -3.09494 -92.6718
rradius 43.7082
rwrist 5.68178
rhand -23.8963 -35.2931
rfingers 7.12502
rthumb 2.57751 -65.2572
lclavicle 3.1408e-014 -2.54444e-014
lhumerus -18.9557 -19.1423 81.7567
lradius 41.8878
lwrist -2.82431
lhand -27.9039 -33.6946
lfingers 7.12502
lthumb -1.29315 -3.71875
rfemur -16.1827 2.92422 9.38538
rtibia 41.7254
rfoot -28.6567 -17.2158
rtoes -8.72673
lfemur -14.2441 0.20833 -13.645
ltibia 35.8422
lfoot -28.2039 20.4418
ltoes -34.8583
88
root -3.01598 16.2959 0.122933 -53.029 -86.7652 54.8381
lowerback -9.00685 2.39914 1.06697
upperback 3.9977 3.46148 -5.39393
thorax 9.78177 1.912 -5.82279
lowerneck -2.81302 10.5835 5.59099
upperneck 11.2346 -49.4586 -4.15966
head 27.707 -29.7849 -178.693
rclavicle -1.98785e-016 1.11319e-014
rhumerus -23.9492 -3.08336 -92.6616
rradius 43.7538
rwrist 5.66296
rhand -23.957 -35.4086
rfingers 7.12502
rthumb 2.51888 -65.3734
lclavicle -1.98785e-016 1.11319e-014
lhumerus -18.9492 -19.1412 81.7473
lradius 41.8919
lwrist -2.88755
lhand -27.917 -33.6812
lfingers 7.12502
lthumb -1.30577 -3.70542
rfemur -16.1247 2.90332 9.38264
rtibia 41.7132
rfoot -28.7232 -17.1998
rtoes -8.70401
lfemur -14.2286 0.221044 -13.6509
ltibia 35.8599
lfoot -28.2251 20.4293
ltoes -35.0028
89
root -3.02163 16.2953 0.122252 -52.6832 -86.7621 54.4899
lowerback -9.04607 2.38809 1.0566
upperback 4.02255 3.44825 -5.37132
thorax 9.82842 1.9052 -5.79386
lowerneck -2.81427 10.5844 5.57751
upperneck 11.2192 -49.3965 -4.15584
head 27.6719 -29.7126 -178.645
rclavicle 1.66979e-014 6.36111e-015
rhumerus -23.9282 -3.04893 -92.6345
rradius 43.8035
rwrist 5.68427
rhand -23.9781 -35.5986
rfingers 7.12502
rthumb 2.49854 -65.5637
lclavicle 1.66979e-014 6.36111e-015
lhumerus -18.9165 -19.0962 81.7498
lradius 41.8731
lwrist -2.96687
lhand -27.9081 -33.6819
lfingers 7.12502
lthumb -1.29714 -3.7061
rfemur -16.0861 2.91707 9.40075
rtibia 41.7088
rfoot -28.7781 -17.2207
rtoes -8.7067
lfemur -14.2139 0.234385 -13.6391
ltibia 35.8707
lfoot -28.2501 20.4114
ltoes -35.1247
